# xmcd
#
# Track frame offsets: 
#        150
#        17694
#        32875
#        47760
#        61836
#        94097
#        107558
#        122257
#        138586
#        154038
#        167019
#        185799
#        210324
#        226328
#        238598
#        253182
#        267505
#        285045
#        299251
#        314977
#
# Disc length: 4397 seconds
#
# Revision: 0
# Processed by: cddbd v1.5.2PL0 Copyright (c) Steve Scherf et al.
# Submitted via: ExactAudioCopyFreeDBPlugin 1.0
#
DISCID=1c112b14
DTITLE=Jorge and Matheus - At The Royal Albert Hall
DYEAR=2013
DGENRE=Country
TTITLE0=Amo Noite e Dia
TTITLE1=Flor
TTITLE2=Seu Astral
TTITLE3=Querendo Te Amar
TTITLE4=Pot-Pourri: Fogueira - Prisão Sem Grade
TTITLE5=De Tanto Te Querer
TTITLE6=Enquanto Houver Razões
TTITLE7=O Que É Que Tem
TTITLE8=Um Dia Eu Te Levo Comigo
TTITLE9=Por Quê?
TTITLE10=Aí Já Era
TTITLE11=A Hora É Agora
TTITLE12=Amor Pra Recomeçar
TTITLE13=Se Eu Chorar
TTITLE14=O Mundo É Tão Pequeno
TTITLE15=Pra Ter O Seu Amor
TTITLE16=Duas Metades
TTITLE17=Mil Anos
TTITLE18=Onde Haja Sol
TTITLE19=Eu Quero Só Você (Be With You)
EXTD=
EXTT0=
EXTT1=
EXTT2=
EXTT3=
EXTT4=
EXTT5=
EXTT6=
EXTT7=
EXTT8=
EXTT9=
EXTT10=
EXTT11=
EXTT12=
EXTT13=
EXTT14=
EXTT15=
EXTT16=
EXTT17=
EXTT18=
EXTT19=
PLAYORDER=
